# xmcd CD database file
#
# Track frame offsets:
#	150
#	3185
#	12635
#	24635
#	46310
#	63935
#	80435
#	86585
#	97160
#	107360
#	123335
#	133685
#	144255
#	166364
#	170858
#	182195
#	192081
#	210562
#	241234
#	253619
#	269311
#	278383
#	310964
#	325767
#
# Disc length: 4397 seconds
#
# Revision: 0
# Processed by: cddbd v1.5.1PL0 Copyright (c) Steve Scherf et al.
# Submitted via: CDex 1.51
#
DISCID=46112b18
DTITLE=Skip Heller - Couch 2.0
DYEAR=2005
DGENRE=Jazz
TTITLE0=the opener
TTITLE1=Couch Los Angeles
TTITLE2=Spy Perfume
TTITLE3=Jelly
TTITLE4=Bad Motel Room
TTITLE5=Nun Seh Ich Woll
TTITLE6=The Raymond Scott Memorial Fake 78
TTITLE7=Joey's After Dark
TTITLE8=Uri Spiel Es Noch Amol
TTITLE9=Little Rootie Tootie
TTITLE10=In A Sentimental Mood
TTITLE11=Take Your Clothes Off When You Dance
TTITLE12=Flowers For Deidre
TTITLE13=interlude
TTITLE14=March Of The Ants
TTITLE15=Savoy Trifle
TTITLE16=Bobby Timmons
TTITLE17=Bald
TTITLE18=More Golf?
TTITLE19=Sheryl Farber
TTITLE20=What Was This Thing Called Mambo?
TTITLE21=Carole Simpson
TTITLE22=Holiday Holiday
TTITLE23=the end
EXTD=YEAR: 2005
EXTT0=
EXTT1=
EXTT2=
EXTT3=
EXTT4=
EXTT5=
EXTT6=
EXTT7=
EXTT8=
EXTT9=
EXTT10=
EXTT11=
EXTT12=
EXTT13=
EXTT14=
EXTT15=
EXTT16=
EXTT17=
EXTT18=
EXTT19=
EXTT20=
EXTT21=
EXTT22=
EXTT23=
PLAYORDER=
